<?xml version="1.0" encoding="UTF-8"?>
<svg id="Layer_2" xmlns="http://www.w3.org/2000/svg" xmlns:xlink="http://www.w3.org/1999/xlink" viewBox="0 0 3009.65 924.28">
  <defs>
    <style>
      .cls-1 {
        clip-path: url(#clippath-4);
      }

      .cls-2 {
        stroke-width: 5px;
      }

      .cls-2, .cls-3, .cls-4, .cls-5 {
        stroke-miterlimit: 10;
      }

      .cls-2, .cls-3, .cls-5 {
        stroke: #fff;
      }

      .cls-2, .cls-4, .cls-6, .cls-7, .cls-8 {
        fill: #fff;
      }

      .cls-3 {
        stroke-width: 15px;
      }

      .cls-3, .cls-9 {
        fill: none;
      }

      .cls-10 {
        letter-spacing: 0em;
      }

      .cls-4 {
        stroke: #20438f;
      }

      .cls-11 {
        clip-path: url(#clippath-1);
      }

      .cls-6 {
        font-size: 212.56px;
      }

      .cls-6, .cls-7, .cls-8 {
        font-family: AgathoBoldCAPS, Agatho;
      }

      .cls-12 {
        clip-path: url(#clippath-5);
      }

      .cls-13, .cls-5 {
        fill: #20438f;
      }

      .cls-14 {
        clip-path: url(#clippath-3);
      }

      .cls-7 {
        font-size: 202.41px;
        letter-spacing: .07em;
      }

      .cls-5 {
        stroke-width: 10px;
      }

      .cls-15 {
        clip-path: url(#clippath-2);
      }

      .cls-8 {
        font-size: 318.84px;
      }

      .cls-16 {
        clip-path: url(#clippath);
      }

      .cls-17 {
        letter-spacing: -.02em;
      }
    </style>
    <clipPath id="clippath">
      <rect class="cls-9" x="32.17" y="568.94" width="389" height="355.34"/>
    </clipPath>
    <clipPath id="clippath-1">
      <rect class="cls-9" x="421.17" y="568.94" width="389" height="355.34"/>
    </clipPath>
    <clipPath id="clippath-2">
      <rect class="cls-9" x="68.42" y="471.27" width="356.92" height="419.87"/>
    </clipPath>
    <clipPath id="clippath-3">
      <rect class="cls-9" x="416.99" y="471.27" width="356.92" height="419.87"/>
    </clipPath>
    <clipPath id="clippath-4">
      <polygon class="cls-9" points="67.67 767.32 67.67 767.32 376.6 767.32 376.6 875.94 67.67 875.94 67.67 767.32"/>
    </clipPath>
    <clipPath id="clippath-5">
      <polygon class="cls-9" points="769.37 767.32 769.37 767.32 460.45 767.32 460.45 875.94 769.37 875.94 769.37 767.32"/>
    </clipPath>
  </defs>
  <g id="Layer_1-2" data-name="Layer_1">
    <g>
      <g>
        <g>
          <text class="cls-8" transform="translate(972.44 455.47)"><tspan class="cls-17" x="0" y="0">B</tspan><tspan class="cls-10" x="185.88" y="0">A</tspan><tspan x="410.34" y="0">SE</tspan></text>
          <text class="cls-8" transform="translate(2112.77 455.47)"><tspan class="cls-17" x="0" y="0">B</tspan><tspan class="cls-10" x="185.88" y="0">A</tspan><tspan x="410.34" y="0">SIC</tspan></text>
          <text class="cls-6" transform="translate(1795.92 420.43)"><tspan x="0" y="0">OF</tspan></text>
        </g>
        <text class="cls-7" transform="translate(1086.68 704.16)"><tspan x="0" y="0">ENGLISH COURSE</tspan></text>
      </g>
      <g>
        <g>
          <path class="cls-3" d="M43.27,589.7c-22.99-51.48-35.77-108.51-35.77-168.53C7.5,192.71,192.71,7.5,421.17,7.5s413.67,185.21,413.67,413.67c0,60.02-12.78,117.06-35.77,168.53"/>
          <g>
            <path class="cls-4" d="M437.93,137.23c4.02,3.34,7.43,6.07,10.73,8.94,7.21,6.28,13.52,13.29,23.01,17.07,5.36,2.13,8.88,8.74,13.42,13.13,4.24,4.1,5.4,11.69,14.58,10.54,2.34-.29,5.74,7.87,8.66,12.14-.51.42-1.01.84-1.52,1.26-5.1-1.27-10.19-3.36-15.32-3.46-2.57-.05-5.33,3.38-7.78,5.49-2.15,1.85-3.76,4.35-5.99,6.08-8.03,6.22-17.21,7.2-27.01,5.93-1.78-.23-4.82,1.32-5.65,2.9-4.79,9.11-9.09,18.47-13.74,28.11-2.26-1.07-4.3-2.03-7.6-3.59,1.46,2.99,2.39,4.98,3.39,6.93,4.62,8.96,4,11.04-3.18,18.48-4.5,4.67-8.74,9.76-12.14,15.26-3.13,5.06-1.95,10.17,2.32,14.81,6.15,6.66,7.82,13.36,5.62,20.09-6.58-1.24-9.82-6.4-11.83-11.66-4.61-12.06-13.62-16.78-25.69-17.35-5.3-.25-11.05-1.77-13.81,5.18-.34.86-2.35,1.08-3.62,1.53-7.61,2.72-15.91,4.26-22.7,8.34-21.96,13.2-19.99,32.28-7.09,50.8,6.4,9.19,25.98,6.66,29.83-3.94,2.86-7.88,8.14-9.39,15.14-9.75,5.48-.29,7.63,1.91,5.86,7.15-1.51,4.46-3.78,8.67-5.08,13.17-1.27,4.38-1.75,8.98-2.73,14.37,4.82,0,10.03.27,15.21-.05,13.38-.84,15.54,1.18,16.34,14.57.36,6.06,1.04,12.27,2.77,18.05,2.27,7.55,7.71,10.07,14.93,7.12,5.92-2.42,11.3-2.88,16.83.48,4.53,2.75,8.21,1,11.25-2.48,7.31-8.36,17.32-10.82,27.69-13.39.78,1.8,1.44,3.33,2.12,4.89,6.82-3.39,19.74.1,25.34,4.76,3.63,3.02,9.06,3.87,14.36,5.95.59-3.59.91-5.55,1.37-8.31,2.05,1.75,3.68,4.29,5.12,4.19,9.68-.74,12.84,6.21,18.41,12.23,7.69,8.32,18.07,15.71,28.71,19.37,14.45,4.98,23.25,13.41,27.03,27.48.75,2.79-1.46,6.38-2.07,8.71,4.72,1.58,9.82,2.95,14.64,4.98,12.55,5.26,25.03,10.69,37.42,16.32,3.15,1.44,5.82,3.92,8.76,5.86,1.76,1.16,3.48,2.54,5.42,3.23,7.85,2.78,9.74,5.51,6.58,13.41-2.32,5.8-5.81,11.32-9.68,16.27-8.9,11.37-16.77,23.02-21.67,36.92-4.98,14.15-14.37,25.2-28.89,31.27-3.12,1.3-5.36,4.84-7.87,7.47-2.24,2.36-4.14,5.05-6.46,7.32-8.23,8.05-16.45,16.12-24.94,23.9-6.92,6.34-14.17,12.33-21.41,18.31-1.58,1.3-3.82,2.76-5.64,2.62-7.32-.55-10.02,2.5-11.08,9.74-.55,3.73-4.52,7.49-7.8,10.2-10.28,8.52-21.15,16.32-31.33,24.95-2.06,1.75-1.84,6.03-3.08,8.97-1.03,2.45-2.26,5.05-4.1,6.89-6.91,6.95-7.01,6.85-.15,13.98.65.68,1.26,1.4,1.79,2.17.24.35.23.88.33,1.32-5.85,4.03-17.45,2.65-25.41-3.01-7.67-5.45-7.5-10.6-7.59-19.16-.1-9.05,3.55-16.75,4.69-25.2,1.23-9.08,3.97-17.94,5.44-26.99,3.81-23.46,7.52-46.94,10.78-70.47,1.59-11.48-4.19-19.93-13.35-26.26-3.09-2.14-6.34-4.08-9.63-5.92-6.07-3.38-9.42-8.54-12.12-14.94-4.93-11.69-10.15-23.39-16.65-34.25-12.76-21.33-11.64-40.58,6.44-57.91,9.31-8.92,10.34-18.52,7.26-29.53-1.1-3.95-3.58-7.69-6.19-10.92-.77-.95-4.22-.18-6.26.43-2.57.77-5.19,3.52-7.35,3.1-11.38-2.19-21.18-6.35-27.76-17.5-3.51-5.94-10.85-10.11-17.21-13.77-9.1-5.23-18.78-9.5-28.42-13.71-4.46-1.95-9.37-2.97-14.16-4.05-7.78-1.76-15.74-2.82-23.42-4.94-5.09-1.4-10.51-3.24-11.6-9.91-.15-.94-1.9-1.87-3.09-2.32-1.28-.49-2.86-.18-4.17-.63-3.65-1.23-7.22-2.67-10.83-4.03,1.5-3.23,3-6.45,4.24-9.13-13.56-15.7-27.42-31.74-41.28-47.79-.31.19-.61.38-.92.57,5.78,11.66,11.55,23.32,17.33,34.98-.63.43-1.26.87-1.89,1.3-1.3-.71-3.17-1.08-3.8-2.17-5.27-9.11-13.91-15.9-15.37-27.78-.98-7.92-5.19-16.32-10.26-22.68-13.94-17.51-16.29-35.86-8.01-56.26,1.93-4.75,2.98-9.92,3.89-15,.43-2.41-.25-5.1-.77-7.59-.81-3.89-1.91-7.71-2.89-11.56-.64-2.52-1.27-5.03-1.9-7.55-.72.08-1.44.16-2.17.24-1.24,2.32-2.48,4.65-4.85,9.08-.93-4.52-1.67-6.99-1.9-9.51-.27-3.04.03-6.12-.17-9.17-.38-5.95-3.81-9.32-9.36-6.89-10.02,4.4-19.82,9.42-29.23,15.02-12.22,7.26-23.95,15.33-36.25,22.17,11.93-14.57,23.86-29.13,36.21-44.21-1.95-.76-3.51-1.37-5.26-2.06,15.22-11.08,21.88-30.32,39.07-38.7,6.02-2.93,12.62-5.38,19.2-6.3,19.79-2.78,39.69-4.68,59.55-6.97,1.61-.19,3.98-.33,4.56-1.32,1.03-1.79.97-4.21,1.36-6.37-1.63-.29-3.3-.96-4.87-.76-2.04.25-3.97,1.28-6,1.78-.56.14-1.29-.39-2.92-.96,1.25-2.13,1.96-5.18,3.5-5.68,10.9-3.52,11.26-18.62,23.52-20.66-30.86,6.16-58.37,21.37-87.8,30.89-.32-.67-.64-1.34-.97-2,2.15-1.68,4.21-3.5,6.47-5.02,50.66-34.03,106.75-51.61,167.53-52.38,34.32-.43,68.69,2.24,103.02,3.8,4.47.2,8.86,2.06,13.29,3.15-.03.91-.06,1.82-.09,2.73-3.36.18-6.73.62-10.07.49-17.87-.71-35.74-1.65-53.62-2.27-3.06-.11-6.16.98-9.25,1.52-.16.67-.32,1.33-.48,2,1.63,1.24,3.17,3.42,4.89,3.57,14.56,1.27,25.86,9.6,37.48,17.06,9.5,6.1,18.75,12.62,27.74,19.45,3.49,2.65,5.94,6.68,8.96,10.18-13.4,9.19-14.91,13.4-11.29,28.72,1.32,5.59,2.68,11.18,4.02,16.76-.72.64-1.44,1.28-2.16,1.92-7.04-4.29-14.29-8.27-21.05-12.96-8.64-6-17.46-11.97-25.06-19.16-3.88-3.66-5.29-9.95-7.78-15.06-.76-1.56-.96-3.79-2.17-4.68-6.7-4.9-13.62-9.52-20.51-14.16-7.17-4.84-12.18-4.7-19.44.09,6.27,6.08,12.53,12.34,19,18.38,7.15,6.66,8.31,15.55,9.27,24.43.7,6.46-3.12,8.81-9.41,6.36-9.62-3.75-19.29-7.39-28.86-11.28-1.55-.63-3.21-2.07-3.79-3.55-.3-.77,1.55-2.48,2.56-3.66,2.27-2.65,4.63-5.23,8.08-9.1-6.75-.73-12.77,1.62-14.06-6.06-.18-1.06-5.39-1.27-8.17-1.86-4.45,11.47-.29,24.15,9.29,29.25.59.32,1.39.46,2.06.38,12.3-1.41,21.65,5.26,31.1,11.47,5.1,3.35,9.76,5.57,13.09-3.25ZM369.42,175.1c-1.67-2.29-2.46-4.5-3.56-4.66-3.19-.47-7.61-1.39-9.47.24-2.11,1.85-2.98,6.42-2.48,9.51.33,2.06,5.05,5.55,5.97,5.05,7.25-3.97,12.19,1.64,20.03,4.28-3.56-4.69-6.02-7.94-9.05-11.94,3.34-.66,5.85-1.72,8.26-1.52,5.61.45,11.16,1.63,16.76,2.25,1.92.21,5.62-.25,5.64-.6.34-4.82,3.94-3.49,6.71-4.14,2.48-.58,4.78-1.94,7.08-2.93-3.62-2.41-7.84-3.68-9.2-6.4-4.44-8.88-7.76-18.31-11.7-27.46-.48-1.13-1.99-1.87-3.13-2.65-5.53-3.77-11.41-6.2-18.24-7.12-4.92-.66-8.43-.08-12.15,3.3-4.75,4.32-10.25,7.81-15.27,11.86-2.68,2.16-4.99,4.58-.62,7.68,3.44,2.44,6.66,5.21,9.84,8,5.1,4.49,10.21,7.84,17.77,6.25,3.21-.68,7.02,1.47,11.54,2.57-5.28,6.4-8.46,5.09-11.41-1.1-1.28,3.68-2.08,5.96-3.32,9.52ZM297.74,149.75c-1.64,1.3-3.88,3.09-7.92,6.31,7.19,1.96,12.64,5.04,17.68,4.47,8.78-.99,9.96-.83,8.09,7.42h13.66c-7.91-5.27-4.22-8.27-1.22-11.59,3.64-4.02,7.03-8.27,10.53-12.42-.65-.53-1.3-1.06-1.95-1.59-2.59,2.11-5.19,4.23-7.78,6.34-.27-1.02.24-1.47.31-1.98.4-2.82.7-5.65,1.03-8.47-2.25,1.05-4.58,1.98-6.73,3.21-1.41.8-2.56,2.05-4.49,3.66-.71-3.39-1.15-5.51-1.71-8.18-3.86,1.68-7.19,3.13-12.24,5.33,1.66-3.85,2.46-5.71,3.26-7.57-.38-.5-.75-1-1.13-1.51-5.88,2.6-11.76,5.2-19.4,8.58,4.46,3.57,7.09,5.67,10,8ZM375.93,60.98c-.67.48-1.34.95-2.01,1.43-.5,2.18-1.25,4.33-1.45,6.54-.74,8.38.33,9.36,8.82,9.86,2.51.15,5.58.42,7.34,1.89,9.71,8.13,18.24.43,29.28-.96-13.75-10.59-32.96-2.37-41.98-18.76ZM471.45,186.73c-3.94,4.8-3.2,10.63,3.84,19.53,2.73-5.61,5.27-10.82,7.75-15.9-4.56-1.43-7.85-2.46-11.59-3.63ZM356.45,198.7h24.7c-8.74-11.03-15.1-11.4-24.7,0ZM290.15,133.78c3.35-2.63,7.15-5.61,11.67-9.17-10.42-3.16-18.27-.69-22.01,5.73,9.24-4.48,9.85-4.23,10.33,3.43ZM354.57,80.89c-2.24,2.95-5.8,5.98-5.26,7.24,1.69,3.96,4.94,7.26,7.59,10.81.53-.33,1.06-.66,1.59-.98-1.19-5.18-2.38-10.37-3.92-17.07ZM298.99,82.14c4.43,9.29,9.22,10.04,14.33,2.78-4.68-.91-9.33-1.81-14.33-2.78ZM461.61,188.65l.67-2.22c-3.42-1.1-6.79-2.64-10.29-3.05-1.26-.15-2.84,2.41-4.28,3.74.28.51.55,1.02.83,1.54h13.07Z"/>
            <path class="cls-4" d="M723.1,289.86c-2.94,1.37-4.62,2.15-6.35,2.96-1.47-7.05-7.12-8.56-12.61-10.49-.5-.18-.39-2.64-.26-4.01.89-9.37,1.81-18.73,2.83-28.08.74-6.69,2.56-7.79,8.77-5.46,3.66,1.37,7.26,2.88,12.14,4.83,1.44-13.83-8.96-21.09-13.56-31.46,1.95-.27,3.74-.52,4.23-.59-2.53-6.51-5.07-13.06-7.66-19.74.17-.09-.51.06-.85.49-1.99,2.55-3.94,6.63-7.6,3.18-3.34-3.14-4.67-7.49-1.31-12.03,1.8-2.42,3.07-5.23,5.17-8.89h5.53c.16-1.91.32-3.78.38-4.48,4.78,13.3,9.83,27.35,15.38,42.79,7.38-13.2-5.15-20.56-6.52-30.35,15.08,10.92,62.08,98.79,62.71,122.14-5.44-3.78-10.56-7.34-15.69-10.89-.83.72-1.65,1.44-2.48,2.16,4.19,7.45,8.38,14.9,12.57,22.35.51-.13,1.02-.26,1.53-.39.17-1.82.35-3.64.52-5.46.61-.39,1.23-.78,1.84-1.17,2.48,3.56,6.47,6.84,7.22,10.74,8.55,44.73,16.05,89.61,9.72,135.4-1.87,13.52-4.48,26.94-6.56,40.43-2.55,16.51-4.73,33.07-7.45,49.55-1.26,7.64-5.4,13.28-11.81,18.39-5.81,4.63-9.4,12.1-13.81,18.43-2.36,3.39-4.39,7-7.88,9.93,3.63-26.99,5.64-54.34,11.56-80.82,3.22-14.4,5.03-27.6,2.11-42.02-1.5-7.41-.26-15.46.3-23.18.37-5.12.13-8.86-6.3-9.34-1.74-.13-4.38-1.81-4.83-3.31-2.1-7-6.87-6.45-10.83-3.2-9.53,7.81-21.31,4.44-31.86,6.9-3.82.89-9.81-3.89-13.58-7.4-3.83-3.57-6.17-8.76-9.11-13.28-1.67-2.55-2.64-6.33-4.97-7.54-7.42-3.84-7.26-10.36-7.09-16.91.54-20.91,3.55-41.25,11.79-60.82,3.47-8.25,6.92-14.87,15.79-18.56,10.14-4.22,12.46-14.78,16.19-23.92.77-1.89,1.5-3.8,2.71-6.86ZM763.69,296.29c-1.02-12.25-6.22-22.46-13.97-31.38-1-1.15-5.02-1.65-5.46-.99-3.52,5.24-8.28,10.56-9.18,16.4-.98,6.31,6.14,6.25,10.91,6.99,2.08.32,4.2.58,6.3.59,5.7.05,11.02.47,11.41,8.4Z"/>
            <path class="cls-4" d="M110.16,525.28c13.25,9.19,25.8,17.88,38.34,26.58.67-.34,1.35-.68,2.02-1.02v-20.4c2.4,1.74,3.59,2.16,4,2.97,4.6,9.12,8.56,18.6,13.72,27.37,5.79,9.84,12.6,19.09,19.04,28.54,9,13.22,19.12,26.3,16.17,43.57-1.56,9.11-4.71,18.2-8.73,26.52-1.67,3.44-7.52,4.86-11.81,7.4,3.47,3.87,7,7.82,10.53,11.77-.62.67-1.25,1.33-1.87,2-2.65-2.28-5.5-4.36-7.9-6.86-14.13-14.73-28-29.73-42.33-44.26-3.88-3.93-8.8-7.11-13.78-9.56-2.22-1.1-5.74.45-8.68.77-1.72.19-3.97,1.11-5.09.36-4.57-3.06-10.41-5.75-12.85-10.2-7.56-13.77-13.86-28.23-20.43-42.53-.8-1.74-1.18-5.32-.28-5.95,8.15-5.74,9.26-15.46,13.84-23.17.57-.96,2.5-1.79,3.64-1.63,7.02,1.03,9.95-2.4,10.5-8.9.07-.83.88-1.59,1.94-3.39Z"/>
            <path class="cls-4" d="M597.34,753.82c-31.46,38.01-210.68,58.07-260.26,30.26,8.55-4.19,16.9-5.38,25.52-4.89,8.23.47,16.42,1.66,24.65,1.82,4.28.08,8.56-1.63,12.89-2.07,2.92-.29,6.23-.53,8.85.51,11.98,4.74,24,6.13,36.68,3.12,2.28-.54,5.29,1.96,7.47,4.28,8.51-.89,17.01-1.79,26.41-2.78-4.16-3.19-7.79-5.98-11.42-8.76-.02-.66-.05-1.32-.07-1.97,4.57-.56,9.88-2.88,13.58-1.34,10.42,4.35,21.01,3.35,31.34,2.15,11.84-1.37,23.44-4.8,35.14-7.33,5.51-1.19,11.06-2.21,16.51-3.61,7.25-1.87,14.42-4.04,21.62-6.1,3.7-1.06,7.39-2.18,11.09-3.28Z"/>
            <path class="cls-4" d="M88.6,485.48q6.6-3.14,14.45-15.33c2.55.93,5.32,1.34,7.29,2.82,2.22,1.66,4.82,4.08,5.29,6.54,1.05,5.59,3.6,7.9,8.5,4.93,4.96-3,9.55-2.51,14,0,8.78,4.95,17.59,9.96,25.88,15.67,6.04,4.15,12.07,6.36,19.17,4.26,5.21-1.54,9.59-4.12,8.94-11.02,4.94-.15,5.97,2.19,4.83,6.15-1.79,6.23-8.61,10.63-15.13,10.31-2.81-.14-5.67.69-8.51,1.08.95,3.19,1.24,6.81,3,9.46,2.83,4.26,6.65,7.87,10,11.8.25.29.14.9.48,3.72-5.38-3.32-9.7-5.65-13.63-8.51-2.63-1.92-4.46-4.93-7.09-6.84-3.7-2.7-7.48-4.93-11.45.5-1.2,1.63-5.43,2.54-7.49,1.75-5.41-2.08-10.4-5.28-16.02-8.29,1.42-1.54,2.77-2.99,4.19-4.53-.16-.65-.1-1.58-.52-1.94-5.81-5.01-11.52-10.16-17.61-14.8-3.57-2.72-7.83-4.44-7.23-10.16.09-.87-1.85-2.46-3.09-2.78-.76-.19-2.48,1.21-2.9,2.25-3.09,7.58-6.7,8.46-15.33,2.98Z"/>
            <path class="cls-4" d="M84.22,245.1c1.48,1.9,2.61,2.79,2.46,3.25-2.28,6.9-3.58,14.48-7.41,20.42-5.3,8.21-10.53,16.12-11.7,26.03-.15,1.25.2,2.56.39,4.74,10.23-6.44,7.38-18.1,12.06-26.77,5.3,9.71-.25,32.38-10.18,43.48-1.46-3.2-2.83-6.21-4.11-9.02-1.34.24-2,.16-2.21.43-5.99,7.61-7.71,33.16-2.83,41.39,5.27,8.89,4.79,9.51-4.25,13.4-2.4,1.03-4.78,4.91-5.03,7.67-1.38,14.73-2.04,29.53-3.05,44.29-.18,2.57-.81,5.11-1.23,7.66l-2.64.16c-.65-3.84-2.06-7.73-1.83-11.52,1.05-17.6,2.12-35.22,4.05-52.74,1.31-11.89,2.84-24.01,6.43-35.34,6.97-22.03,15.32-43.64,23.44-65.29,1.56-4.16,4.75-7.71,7.63-12.25Z"/>
            <path class="cls-4" d="M74.94,468.29c3.92,2.69,7.24,4.96,10.55,7.23-.26.43-.52.86-.78,1.28-1.54-.57-3.09-1.14-6.66-2.47,1.74,6.69,3.07,11.85,4.26,16.42-2.98.76-5.58,1.42-9.46,2.41-1.06-7.67-2.15-15.57-3.51-25.35-1.34,3.63-1.7,5.76-2.83,7.37-1.31,1.88-3.72,4.91-4.88,4.59-2.49-.67-6.16-3.01-6.36-4.96-.7-6.93-.98-14.13.18-20.95,1.14-6.7,4.23-13.08,6.47-19.59.75.11,1.51.23,2.26.34.78,5.4,1.5,10.82,2.36,16.21,1.07,6.74,4.4,10.55,11.93,9.93,2.27-.19,4.69,1.52,7.04,2.36-2.16,1.4-4.25,2.92-6.51,4.14-1.14.62-2.57.68-4.06,1.04Z"/>
            <path class="cls-4" d="M227.4,674.36c8.27-8.48,19.08-12.34,30.91-15.7-.93-1.57-1.77-3-2.62-4.43.64.04,1.28.09,1.91.13.54-6.38,1.08-12.77,1.7-20.08,5.37,6.88,10.06,12.88,15.76,20.18-12.93,7.41-25.75,14.99-38.85,22.06-2.18,1.18-5.54.17-8.35.17-.16-.77-.31-1.54-.47-2.31Z"/>
            <path class="cls-4" d="M398.55,336.18c4.01-1.79,8.02-5.12,12.02-5.11,14.68.04,27.13,6.92,39.38,13.9-.18.8-.36,1.6-.54,2.4-3.64-.62-7.36-.94-10.9-1.93-6.04-1.68-11.97-3.76-17.93-5.74-.73-.24-1.51-.82-1.91-1.46-3.12-4.97-6.53-3.35-10.49-.97-2.39,1.44-5.41,1.84-8.14,2.7-.49-1.27-.99-2.53-1.48-3.8Z"/>
            <path class="cls-4" d="M65.92,379.01c.38,11.78,7.02,20.04,14.03,28.3,3.04,3.58.41,10.01-4.3,11.34-1,.28-3.81-1.79-3.83-2.82-.11-4.67-.08-8.4-4.84-11.87-4.75-3.46-5.05-18.34-1.06-24.95Z"/>
            <path class="cls-4" d="M532.81,128.86c11.39-5.1,26.21-1.7,32.87,8.05-5.95,4.84-11.99,2.72-17.35-.34-5.02-2.86-13.37,1.79-15.52-7.72Z"/>
            <path class="cls-4" d="M77.95,516.03c-8.2-7.26-16.24-14.05-23.86-21.3-3.15-3-4.57-6.88,1.1-9.69,4.83,9.79,13.35,15.38,22.74,19.82,5.63,2.66,5.8,4.08.01,11.16Z"/>
            <path class="cls-4" d="M496,358.34c-11.19,2.78-22.4,4.99-35.08,3.05,12.05-8.39,23.35-9.08,35.08-3.05Z"/>
            <path class="cls-4" d="M48.4,478.46c-5.35-15.42-5.4-31.65-7.15-47.62.91-.14,1.81-.28,2.72-.42,2.46,15.86,4.91,31.72,7.37,47.58-.98.15-1.96.3-2.94.45Z"/>
            <path class="cls-4" d="M218.32,436.93c15.32,2.49,24.28,12.5,19.77,19.16-6.21-6.02-12.5-12.11-19.77-19.16Z"/>
            <path class="cls-4" d="M84.48,419.8v18.27c-9.28-4.29-9.47-6.72-2.26-18.3l2.26.03Z"/>
            <path class="cls-4" d="M126.29,177.86c3.14-1.85,5.49-3.9,8.18-4.61,2.44-.64,5.29.12,7.91.55.21.03.5,3.14-.03,3.44-2.85,1.61-5.85,3.39-8.99,3.88-1.81.28-3.99-1.74-7.07-3.25Z"/>
            <path class="cls-4" d="M204.57,504.61c6.2,4.26,10.8,7.43,16.28,11.2-9.4,1.97-13.32-.58-16.28-11.2Z"/>
            <path class="cls-4" d="M245.62,538.36c-5.8-1.98-9.28-3.17-14.36-4.91,2.32-2.16,4.36-4.07,6.41-5.99,2.34,3.21,4.69,6.42,7.95,10.89Z"/>
            <path class="cls-4" d="M522.21,734.84c-3.28,1.67-6.54,3.39-9.92,4.81-.12.05-1.46-2.8-2.23-4.3,3.51-1.37,7.03-2.75,10.54-4.12.54,1.2,1.07,2.4,1.61,3.61Z"/>
            <path class="cls-4" d="M92.56,477.38v-18.18c.67,0,1.35,0,2.02,0v18.18c-.67,0-1.35,0-2.02,0Z"/>
            <path class="cls-4" d="M84.2,515.22c3.11-3.25,5.7-5.95,9.15-9.56.89,10.23-.87,12.11-9.15,9.56Z"/>
            <path class="cls-4" d="M218.27,521.63c4.54,3.83,9.92-5.23,16.02,2.55h-16.34c.11-.85.21-1.7.32-2.55Z"/>
            <path class="cls-4" d="M255.92,590.35c2.65,3.24,5.29,6.47,7.94,9.71-.81.7-1.61,1.39-2.42,2.09-2.77-3.13-5.53-6.26-8.3-9.39.93-.8,1.86-1.6,2.79-2.4Z"/>
            <path class="cls-4" d="M270.15,562.56c1.53,3.3,3.07,6.6,4.6,9.9-1.11.52-2.22,1.04-3.32,1.57-1.6-3.34-3.19-6.67-4.79-10.01,1.17-.48,2.34-.97,3.51-1.45Z"/>
            <path class="cls-4" d="M331.66,583.67c-2.39,1.24-4.11,2.72-4.76,2.35-1.58-.91-2.94-2.54-3.77-4.19-.23-.45,2.3-3.02,2.56-2.88,1.81,1.05,3.36,2.55,5.97,4.72Z"/>
          </g>
        </g>
        <g>
          <g>
            <g id="_x3C_Mirror_Repeat_x3E_">
              <g class="cls-16">
                <path class="cls-2" d="M34.67,574.84v249.36s179.19-28.77,382.18,96.12c6.82,4.2,15.29-1.15,15.29-9.65v-144.27c0-78.18-48.28-146.77-117.92-167.2-66.53-19.52-160.4-34.84-279.55-24.37Z"/>
              </g>
            </g>
            <g id="_x3C_Mirror_Repeat_x3E_-2" data-name="_x3C_Mirror_Repeat_x3E_">
              <g class="cls-11">
                <path class="cls-2" d="M807.66,574.84v249.36s-179.19-28.77-382.18,96.12c-6.82,4.2-15.29-1.15-15.29-9.65v-144.27c0-78.18,48.28-146.77,117.92-167.2,66.53-19.52,160.4-34.84,279.55-24.37Z"/>
              </g>
            </g>
          </g>
          <g>
            <g id="_x3C_Mirror_Repeat_x3E_-3" data-name="_x3C_Mirror_Repeat_x3E_">
              <g class="cls-15">
                <path class="cls-5" d="M413.2,884.86c-29.53-30.53-149.52-141.79-339.78-153.35v-255.03s189.23-13.42,346.92,174.49v230.98c0,3.74-4.54,5.59-7.15,2.91Z"/>
              </g>
            </g>
            <g id="_x3C_Mirror_Repeat_x3E_-4" data-name="_x3C_Mirror_Repeat_x3E_">
              <g class="cls-14">
                <path class="cls-5" d="M429.14,884.86c29.53-30.53,149.52-141.79,339.78-153.35v-255.03s-189.23-13.42-346.92,174.49v230.98c0,3.74,4.54,5.59,7.15,2.91Z"/>
              </g>
            </g>
          </g>
        </g>
        <g>
          <g id="_x3C_Mirror_Repeat_x3E_-5" data-name="_x3C_Mirror_Repeat_x3E_">
            <g class="cls-1">
              <path class="cls-13" d="M67.67,769.01s142.58-23.76,308.93,106.94c0,0-201.99-118.82-308.93-106.94Z"/>
            </g>
          </g>
          <g id="_x3C_Mirror_Repeat_x3E_-6" data-name="_x3C_Mirror_Repeat_x3E_">
            <g class="cls-12">
              <path class="cls-13" d="M769.37,769.01s-142.58-23.76-308.93,106.94c0,0,201.99-118.82,308.93-106.94Z"/>
            </g>
          </g>
        </g>
      </g>
    </g>
  </g>
</svg>